<svg width="64" height="54" viewBox="0 0 64 54" fill="none" xmlns="http://www.w3.org/2000/svg">
<path d="M27 3C26.45 3 26 3.45 26 4V11H11C10.45 11 10 11.45 10 12V19H3.00001C2.45001 19 2.00001 19.45 2.00001 20V27H1.32228C0.855276 27 0.449713 27.3233 0.345713 27.7793C0.270713 28.1123 -1.43813 36.0027 3.38087 42.5938C6.87287 47.3688 12.8309 50.1513 21.0879 50.8613C22.1699 50.9553 23.2154 51 24.2344 51C44.1714 51 52.1659 33.9272 53.7109 30.0742C61.5509 30.7012 63.9155 24.4009 63.9395 24.3359C64.0795 23.9469 63.9644 23.5102 63.6504 23.2402C60.5714 20.5902 57.5391 20.5424 55.4531 21.1914C55.6641 16.6104 50.8561 13.3279 50.6211 13.1699C50.4001 13.0209 50.1282 12.9665 49.8692 13.0195C49.6082 13.0715 49.3794 13.2233 49.2324 13.4453C45.1454 19.6023 46.7855 24.081 47.7695 25.832C46.1895 27.033 44.1487 27.003 44.0977 27H44V20C44 19.45 43.55 19 43 19H36V4C36 3.45 35.55 3 35 3H27ZM28 5H34V11H28V5ZM12 13H26V19H20V16C20 15.448 19.552 15 19 15C18.448 15 18 15.448 18 16V19H12V13ZM28 13H34V27H28V21H31C31.55 21 32 20.55 32 20C32 19.45 31.55 19 31 19H28V13ZM50.3301 15.4688C51.7431 16.6827 54.3712 19.4769 53.1172 22.6289C52.9512 23.0459 53.0864 23.521 53.4434 23.793C53.8004 24.065 54.2993 24.062 54.6563 23.791C54.7923 23.688 57.8778 21.4161 61.7598 24.2871C60.9968 25.6661 58.6486 28.7398 53.1856 28.0078C52.7026 27.9428 52.2516 28.2285 52.1016 28.6855C52.0316 28.8985 45.1629 49 24.2109 48.998C23.2579 48.997 22.2718 48.9561 21.2598 48.8691C13.6138 48.2111 8.14582 45.7077 5.00782 41.4297C1.54582 36.7097 1.89793 31.043 2.16993 29H3.00001H43C43.0069 29 43.0127 28.9962 43.0195 28.9961H44.0684C44.2154 29.0021 47.5777 29.0757 49.8067 26.6777C50.1487 26.3107 50.1638 25.7464 49.8438 25.3594C49.8108 25.3204 46.8031 21.5608 50.3301 15.4688ZM4.00001 21H10V27H4.00001V21ZM12 21H18V27H12V21ZM20 21H26V27H20V21ZM36 21H42V27H36V21ZM12.5 34C11.837 34 11.2011 34.2634 10.7322 34.7322C10.2634 35.2011 10 35.837 10 36.5C10 37.163 10.2634 37.7989 10.7322 38.2678C11.2011 38.7366 11.837 39 12.5 39C13.1631 39 13.7989 38.7366 14.2678 38.2678C14.7366 37.7989 15 37.163 15 36.5C15 35.837 14.7366 35.2011 14.2678 34.7322C13.7989 34.2634 13.1631 34 12.5 34ZM42.2871 34.5098C42.032 34.531 41.784 34.6494 41.6055 34.8594C41.2485 35.2814 41.3017 35.9125 41.7227 36.2695L43.2461 37.5645C43.4341 37.7235 43.6636 37.8008 43.8926 37.8008C44.1766 37.8008 44.4573 37.6803 44.6563 37.4473C45.0133 37.0253 44.962 36.3941 44.541 36.0371L43.0156 34.7441C42.8046 34.5651 42.5422 34.4885 42.2871 34.5098ZM39.0098 37.9082C38.7553 37.8816 38.4914 37.953 38.2774 38.127C37.8484 38.474 37.7829 39.1023 38.1309 39.5312L39.3887 41.0859C39.5857 41.3309 39.875 41.457 40.166 41.457C40.387 41.457 40.6089 41.3834 40.7949 41.2324C41.2239 40.8854 41.2894 40.2552 40.9414 39.8262L39.6836 38.2734C39.5096 38.0589 39.2643 37.9348 39.0098 37.9082ZM34.7949 40.5391C34.6654 40.5483 34.5351 40.5835 34.4121 40.6465C33.9191 40.8975 33.7246 41.5002 33.9746 41.9922L34.8828 43.7754C35.0588 44.1214 35.4094 44.3203 35.7734 44.3203C35.9264 44.3203 36.0816 44.2859 36.2266 44.2129C36.7196 43.9619 36.9141 43.3592 36.6641 42.8672L35.7578 41.0859C35.5696 40.7169 35.1836 40.5115 34.7949 40.5391ZM30.5059 42.2461C30.3774 42.2269 30.2429 42.2333 30.1094 42.2676C29.5744 42.4056 29.2546 42.9494 29.3926 43.4844L29.8926 45.4219C30.0096 45.8729 30.4144 46.1719 30.8594 46.1719C30.9424 46.1719 31.0264 46.1626 31.1094 46.1406C31.6444 46.0026 31.9661 45.4569 31.8281 44.9219L31.3281 42.9844C31.2246 42.5839 30.8912 42.3036 30.5059 42.2461ZM25.5313 42.9512C24.9793 42.9792 24.556 43.448 24.584 44L24.6856 45.998C24.7126 46.532 25.1546 46.9473 25.6836 46.9473C25.7006 46.9473 25.7174 46.9453 25.7344 46.9453C26.2864 46.9173 26.7116 46.4485 26.6836 45.8965L26.5801 43.8984C26.5521 43.3464 26.0733 42.9262 25.5313 42.9512Z" fill="#363636"/>
</svg>
