<svg width="204" height="272" viewBox="0 0 204 272" fill="none" xmlns="http://www.w3.org/2000/svg">
<path fill-rule="evenodd" clip-rule="evenodd" d="M38.5 257C51.4787 257 62 246.479 62 233.5C62 220.521 51.4787 210 38.5 210C25.5213 210 15 220.521 15 233.5C15 246.479 25.5213 257 38.5 257ZM38.5 272C59.763 272 77 254.763 77 233.5C77 217.178 66.8435 203.229 52.5058 197.627C52.6172 189.289 54.3179 182.672 56.5946 178.537C58.9514 174.257 62.4319 170.718 67.309 167.517C75.7931 161.948 86.326 158.515 99.4341 154.243H99.4355H99.436C102.999 153.081 106.752 151.858 110.705 150.513C127.756 144.714 147.672 136.747 162.255 120.14C168.89 113.505 178.517 102.674 179.846 74.2385C194.004 68.55 204 54.6924 204 38.5C204 17.237 186.763 -9.2943e-07 165.5 0C144.237 9.2944e-07 127 17.237 127 38.5C127 54.0935 136.27 67.5218 149.601 73.5741C149.24 91.4624 143.854 97.1942 139.284 102.059C138.67 102.712 138.07 103.35 137.5 104C129.853 112.708 114.601 117.275 101.632 121.159H101.631C98.9619 121.958 96.3895 122.728 94 123.5C80.4717 127.868 63.0486 134.428 50.8473 142.436C42.8337 147.696 35.5252 154.606 30.3156 164.066C25.1086 173.522 22.5038 185.607 22.5 198.472C9.22382 204.546 7.84382e-06 217.946 8.52371e-06 233.5C6.84082e-06 254.763 17.237 272 38.5 272ZM62 38.5C62 51.4787 51.4787 62 38.5 62C25.5213 62 15 51.4787 15 38.5C15 25.5213 25.5213 15 38.5 15C51.4787 15 62 25.5213 62 38.5ZM23 73.7526V166.149C23.97 163.766 25.0717 161.452 26.3079 159.207C32.2787 148.364 40.6085 140.557 49.4575 134.748C51.0898 133.677 52.6024 132.714 54 131.848V73.7526C67.544 67.7889 77 54.2487 77 38.5C77 17.237 59.763 4.62192e-06 38.5 5.55135e-06C17.237 6.48079e-06 -9.294e-07 17.237 0 38.5C-1.2465e-06 54.2487 9.45597 67.7889 23 73.7526ZM189 38.5C189 51.4787 178.479 62 165.5 62C152.521 62 142 51.4787 142 38.5C142 25.5213 152.521 15 165.5 15C178.479 15 189 25.5213 189 38.5Z" fill="#363636"/>
</svg>
