<svg width="73" height="73" viewBox="0 0 73 73" fill="none" xmlns="http://www.w3.org/2000/svg">
<path d="M19.3373 46C20.0506 46 20.6747 45.4615 20.6747 44.8462V27.1538C20.6747 26.5385 20.0506 26 19.3373 26C18.6241 26 18 26.5385 18 27.1538V44.9231C18 45.4615 18.6241 46 19.3373 46Z" fill="#363636"/>
<path d="M36.2 46C36.84 46 37.4 45.4615 37.4 44.8462V27.1538C37.4 26.5385 36.84 26 36.2 26C35.56 26 35 26.5385 35 27.1538V44.9231C35 45.4615 35.48 46 36.2 46Z" fill="#363636"/>
<path d="M53.3373 46C54.0506 46 54.6747 45.4615 54.6747 44.8462V27.1538C54.6747 26.5385 54.0506 26 53.3373 26C52.6241 26 52 26.5385 52 27.1538V44.9231C52 45.4615 52.6241 46 53.3373 46Z" fill="#363636"/>
<rect x="1.5" y="18.5" width="70" height="36" rx="2.5" stroke="#363636" stroke-width="3"/>
</svg>
