<svg width="512" height="512" viewBox="0 0 512 512" fill="none" xmlns="http://www.w3.org/2000/svg">
<path d="M486.772 145.876C487.691 145.877 488.602 145.696 489.451 145.344C490.301 144.993 491.073 144.477 491.723 143.827C492.373 143.177 492.889 142.405 493.24 141.555C493.592 140.706 493.773 139.795 493.772 138.876V105.6C493.772 103.743 493.034 101.963 491.722 100.65C490.409 99.3375 488.629 98.6 486.772 98.6H59.2C57.3435 98.6 55.563 99.3375 54.2502 100.65C52.9375 101.963 52.2 103.743 52.2 105.6V138.864C52.1995 139.783 52.3802 140.694 52.7318 141.543C53.0834 142.393 53.599 143.165 54.2491 143.815C54.8992 144.465 55.6711 144.981 56.5206 145.332C57.3701 145.684 58.2806 145.865 59.2 145.864H66.48V181.864H56.352V168.024C56.352 166.167 55.6145 164.387 54.3017 163.074C52.989 161.762 51.2085 161.024 49.352 161.024C47.4955 161.024 45.715 161.762 44.4023 163.074C43.0895 164.387 42.352 166.167 42.352 168.024V181.864H25.228C24.3086 181.863 23.3981 182.044 22.5486 182.396C21.6991 182.747 20.9272 183.263 20.2771 183.913C19.627 184.563 19.1114 185.335 18.7598 186.185C18.4082 187.034 18.2275 187.945 18.228 188.864V213.536C18.2275 214.455 18.4082 215.366 18.7598 216.215C19.1114 217.065 19.627 217.837 20.2771 218.487C20.9272 219.137 21.6991 219.653 22.5486 220.004C23.3981 220.356 24.3086 220.537 25.228 220.536H42.352V291.456H25.228C24.3086 291.455 23.3981 291.636 22.5486 291.988C21.6991 292.339 20.9272 292.855 20.2771 293.505C19.627 294.155 19.1114 294.927 18.7598 295.777C18.4082 296.626 18.2275 297.537 18.228 298.456V323.128C18.2275 324.047 18.4082 324.958 18.7598 325.807C19.1114 326.657 19.627 327.429 20.2771 328.079C20.9272 328.729 21.6991 329.245 22.5486 329.596C23.3981 329.948 24.3086 330.129 25.228 330.128H42.352V343.968C42.352 345.825 43.0895 347.605 44.4023 348.918C45.715 350.231 47.4955 350.968 49.352 350.968C51.2085 350.968 52.989 350.231 54.3017 348.918C55.6145 347.605 56.352 345.825 56.352 343.968V330.128H66.476V366.128H59.2C58.2806 366.127 57.3701 366.308 56.5206 366.66C55.6711 367.011 54.8992 367.527 54.2491 368.177C53.599 368.827 53.0834 369.599 52.7318 370.449C52.3802 371.298 52.1995 372.209 52.2 373.128V406.4C52.2 408.257 52.9375 410.037 54.2502 411.35C55.563 412.663 57.3435 413.4 59.2 413.4H486.772C488.629 413.4 490.409 412.663 491.722 411.35C493.034 410.037 493.772 408.257 493.772 406.4V373.124C493.773 372.205 493.592 371.294 493.24 370.445C492.889 369.595 492.373 368.823 491.723 368.173C491.073 367.523 490.301 367.007 489.451 366.656C488.602 366.304 487.691 366.123 486.772 366.124H479.492V145.876H486.772ZM66.196 112.612H479.772V131.876H66.196V112.612ZM32.228 195.868H66.476V206.54H32.228V195.868ZM56.352 220.54H66.476V291.46H56.352V220.54ZM32.228 316.14V305.46H66.476V316.132L32.228 316.14ZM479.772 399.388H66.196V380.124H479.772V399.388ZM465.492 366.124H80.476V145.876H465.492V366.124Z" fill="#363636"/>
<path d="M272.984 350.972C273.905 350.975 274.817 350.795 275.668 350.445C276.52 350.094 277.293 349.579 277.945 348.929C278.597 348.278 279.114 347.506 279.467 346.655C279.819 345.805 280.001 344.893 280 343.972V168.028C280 166.171 279.262 164.391 277.95 163.078C276.637 161.766 274.857 161.028 273 161.028C271.143 161.028 269.363 161.766 268.05 163.078C266.738 164.391 266 166.171 266 168.028V343.972C265.999 345.826 266.734 347.605 268.043 348.917C269.353 350.23 271.13 350.969 272.984 350.972V350.972Z" fill="#363636"/>
<path d="M321.976 350.972C322.895 350.973 323.806 350.792 324.655 350.44C325.505 350.089 326.277 349.573 326.927 348.923C327.577 348.273 328.093 347.501 328.444 346.651C328.796 345.802 328.977 344.891 328.976 343.972V168.028C328.976 166.171 328.239 164.391 326.926 163.078C325.613 161.766 323.833 161.028 321.976 161.028C320.119 161.028 318.339 161.766 317.026 163.078C315.713 164.391 314.976 166.171 314.976 168.028V343.972C314.975 344.891 315.156 345.802 315.508 346.651C315.859 347.501 316.375 348.273 317.025 348.923C317.675 349.573 318.447 350.089 319.297 350.44C320.146 350.792 321.057 350.973 321.976 350.972Z" fill="#363636"/>
<path d="M370.968 350.972C371.887 350.973 372.798 350.792 373.647 350.44C374.497 350.089 375.269 349.573 375.919 348.923C376.569 348.273 377.085 347.501 377.436 346.651C377.788 345.802 377.969 344.891 377.968 343.972V168.028C377.968 166.171 377.231 164.391 375.918 163.078C374.605 161.766 372.825 161.028 370.968 161.028C369.111 161.028 367.331 161.766 366.018 163.078C364.705 164.391 363.968 166.171 363.968 168.028V343.972C363.967 344.891 364.148 345.802 364.5 346.651C364.851 347.501 365.367 348.273 366.017 348.923C366.667 349.573 367.439 350.089 368.289 350.44C369.138 350.792 370.049 350.973 370.968 350.972Z" fill="#363636"/>
<path d="M419.96 350.972C420.879 350.973 421.79 350.792 422.639 350.44C423.489 350.089 424.261 349.573 424.911 348.923C425.561 348.273 426.077 347.501 426.428 346.651C426.78 345.802 426.961 344.891 426.96 343.972V168.028C426.96 166.171 426.223 164.391 424.91 163.078C423.597 161.766 421.817 161.028 419.96 161.028C418.103 161.028 416.323 161.766 415.01 163.078C413.698 164.391 412.96 166.171 412.96 168.028V343.972C412.959 344.891 413.14 345.802 413.492 346.651C413.843 347.501 414.359 348.273 415.009 348.923C415.659 349.573 416.431 350.089 417.281 350.44C418.13 350.792 419.041 350.973 419.96 350.972Z" fill="#363636"/>
<path d="M126 350.972C126.919 350.973 127.83 350.792 128.679 350.44C129.529 350.089 130.301 349.573 130.951 348.923C131.601 348.273 132.117 347.501 132.468 346.651C132.82 345.802 133.001 344.891 133 343.972V168.028C133 166.171 132.263 164.391 130.95 163.078C129.637 161.766 127.857 161.028 126 161.028C124.143 161.028 122.363 161.766 121.05 163.078C119.738 164.391 119 166.171 119 168.028V343.972C118.999 344.891 119.18 345.802 119.532 346.651C119.883 347.501 120.399 348.273 121.049 348.923C121.699 349.573 122.471 350.089 123.321 350.44C124.17 350.792 125.081 350.973 126 350.972V350.972Z" fill="#363636"/>
<path d="M175 350.972C175.919 350.973 176.83 350.792 177.679 350.44C178.529 350.089 179.301 349.573 179.951 348.923C180.601 348.273 181.117 347.501 181.468 346.651C181.82 345.802 182.001 344.891 182 343.972V168.028C182 166.171 181.263 164.391 179.95 163.078C178.637 161.766 176.857 161.028 175 161.028C173.143 161.028 171.363 161.766 170.05 163.078C168.737 164.391 168 166.171 168 168.028V343.972C167.999 344.891 168.18 345.802 168.532 346.651C168.883 347.501 169.399 348.273 170.049 348.923C170.699 349.573 171.471 350.089 172.321 350.44C173.17 350.792 174.081 350.973 175 350.972V350.972Z" fill="#363636"/>
<path d="M224 350.972C224.919 350.973 225.83 350.792 226.679 350.44C227.529 350.089 228.301 349.573 228.951 348.923C229.601 348.273 230.117 347.501 230.468 346.651C230.82 345.802 231.001 344.891 231 343.972V168.028C231 166.171 230.263 164.391 228.95 163.078C227.637 161.766 225.857 161.028 224 161.028C222.143 161.028 220.363 161.766 219.05 163.078C217.737 164.391 217 166.171 217 168.028V343.972C216.999 344.891 217.18 345.802 217.532 346.651C217.883 347.501 218.399 348.273 219.049 348.923C219.699 349.573 220.471 350.089 221.321 350.44C222.17 350.792 223.081 350.973 224 350.972V350.972Z" fill="#363636"/>
</svg>
