<svg width="70" height="52" viewBox="0 0 70 52" fill="none" xmlns="http://www.w3.org/2000/svg">
<path d="M56.318 51.898H10.393C5.76997 51.898 3.96797 50.096 3.96797 45.476L0.448974 17.108C0.433974 12.834 1.80797 10.92 5.23897 10.504L8.40597 1.598C8.72497 0.701998 9.57497 0.100998 10.527 0.100998H29.406C30.346 0.100998 31.187 0.686998 31.515 1.569L34.796 10.417H52.6C56.532 10.417 59.274 12.969 59.939 17.246L62.734 45.254C62.746 50.097 60.944 51.898 56.318 51.898ZM8.67297 47.275C8.74297 47.275 9.16197 47.398 10.393 47.398H56.319C57.728 47.398 58.077 47.237 58.132 47.205C58.094 47.202 58.246 46.962 58.246 45.476L55.477 17.814C55.076 15.259 53.728 14.917 52.6 14.917H33.232C32.292 14.917 31.451 14.331 31.123 13.449L27.842 4.601H12.115L8.97997 13.42C8.66097 14.316 7.81097 14.917 6.85897 14.917C5.44697 14.917 5.09797 15.078 5.04297 15.11C5.04597 15.11 5.04597 15.11 5.04597 15.11C5.08097 15.11 4.93197 15.479 4.93197 16.833L8.45097 45.201C8.46897 46.88 8.62997 47.228 8.66197 47.284C8.65797 47.278 8.66097 47.275 8.67297 47.275Z" fill="#363636"/>
<path d="M60.499 48.825C60.353 48.825 60.206 48.81 60.057 48.781C58.838 48.541 58.047 47.357 58.29 46.135L65.031 12.168C65.456 8.099 62.608 7.149 61.512 6.941H39.271C38.029 6.941 37.021 5.933 37.021 4.691C37.021 3.449 38.029 2.441 39.271 2.441H61.704C61.807 2.441 61.906 2.447 62.009 2.462C64.359 2.781 70.282 5.272 69.477 12.845L62.704 47.014C62.491 48.084 61.551 48.825 60.499 48.825Z" fill="#363636"/>
</svg>
