<svg width="24" height="18" viewBox="0 0 24 18" fill="none" xmlns="http://www.w3.org/2000/svg">
<path d="M23.77 8.08C23.0437 7.62577 22.2151 7.36102 21.36 7.31C21.2136 7.29803 21.0664 7.29803 20.92 7.31C20.6442 6.3931 20.0662 5.59655 19.28 5.05C19.1822 4.98442 19.0643 4.95548 18.9472 4.96829C18.8302 4.98109 18.7213 5.03482 18.64 5.12C18.293 5.58373 18.0492 6.11634 17.925 6.68207C17.8008 7.2478 17.7991 7.83356 17.92 8.4C17.9288 8.47366 17.9218 8.54835 17.8994 8.61907C17.877 8.68979 17.8397 8.75489 17.79 8.81C17.7473 8.85777 17.6948 8.89587 17.6362 8.92174C17.5776 8.9476 17.5141 8.96065 17.45 8.96H17V6.5C17 6.36739 16.9473 6.24021 16.8536 6.14645C16.7598 6.05268 16.6326 6 16.5 6H14V0.5C14 0.367392 13.9473 0.240215 13.8536 0.146447C13.7598 0.0526785 13.6326 0 13.5 0H10.5C10.3674 0 10.2402 0.0526785 10.1464 0.146447C10.0527 0.240215 10 0.367392 10 0.5V3H4.5C4.36739 3 4.24021 3.05268 4.14645 3.14645C4.05268 3.24021 4 3.36739 4 3.5V6H1.5C1.36739 6 1.24021 6.05268 1.14645 6.14645C1.05268 6.24021 1 6.36739 1 6.5V9H0.5C0.367392 9 0.240215 9.05268 0.146447 9.14645C0.0526784 9.24021 0 9.36739 0 9.5C0 17.17 5.59 18 8 18C10.5028 18.0074 12.9637 17.3573 15.1364 16.1148C17.309 14.8723 19.1172 13.0809 20.38 10.92C21.0905 10.8263 21.7734 10.5848 22.3849 10.2111C22.9963 9.83731 23.5227 9.3396 23.93 8.75C23.9943 8.6391 24.0136 8.50774 23.9838 8.38305C23.954 8.25836 23.8775 8.14988 23.77 8.08V8.08ZM16 9H14V7H16V9ZM5 9V7H7V9H5ZM8 9V7H10V9H8ZM13 4V6H11V4H13ZM11 9V7H13V9H11ZM11 1H13V3H11V1ZM10 6H8V4H10V6ZM5 4H7V6H5V4ZM2 7H4V9H2V7ZM5 14C4.80222 14 4.60888 13.9414 4.44443 13.8315C4.27998 13.7216 4.15181 13.5654 4.07612 13.3827C4.00043 13.2 3.98063 12.9989 4.01921 12.8049C4.0578 12.6109 4.15304 12.4327 4.29289 12.2929C4.43275 12.153 4.61093 12.0578 4.80491 12.0192C4.99889 11.9806 5.19996 12.0004 5.38268 12.0761C5.56541 12.1518 5.72159 12.28 5.83147 12.4444C5.94135 12.6089 6 12.8022 6 13C6 13.2652 5.89464 13.5196 5.70711 13.7071C5.51957 13.8946 5.26522 14 5 14Z" fill="#EDECEC"/>
</svg>
