<svg width="120" height="120" viewBox="0 0 120 120" fill="none" xmlns="http://www.w3.org/2000/svg">
<path fill-rule="evenodd" clip-rule="evenodd" d="M96.51 23H23.491C18.801 23 15 26.784 15 31.452V85.548C15 90.216 18.801 94 23.491 94H96.51C101.199 94 105 90.216 105 85.548V31.452C105 26.784 101.199 23 96.51 23ZM42.998 30.011C44.658 30.011 46.003 31.35 46.003 33.002C46.003 34.654 44.658 35.993 42.998 35.993C41.338 35.993 39.993 34.654 39.993 33.002C39.993 31.35 41.338 30.011 42.998 30.011ZM34.006 30.011C35.666 30.011 37.011 31.35 37.011 33.002C37.011 34.654 35.666 35.993 34.006 35.993C32.347 35.993 31.001 34.654 31.001 33.002C31.001 31.35 32.347 30.011 34.006 30.011ZM25.001 30.011C26.653 30.011 27.992 31.35 27.992 33.002C27.992 34.654 26.653 35.993 25.001 35.993C23.349 35.993 22.01 34.654 22.01 33.002C22.01 31.35 23.349 30.011 25.001 30.011ZM102 84C102 88 99 91 95 91H25C21 91 18 88 18 84V41C18 41.007 101.895 41 102 41V84Z" fill="#EDECEC"/>
<path d="M40 52H32L46 67L32 82H40L54 67L40 52Z" fill="#EDECEC"/>
<path d="M81 77H55V82H81V77Z" fill="#EDECEC"/>
</svg>
