<svg width="285" height="294" viewBox="0 0 285 294" fill="none" xmlns="http://www.w3.org/2000/svg">
<path fill-rule="evenodd" clip-rule="evenodd" d="M78.5 268C91.4787 268 102 257.479 102 244.5C102 231.521 91.4787 221 78.5 221C65.5213 221 55 231.521 55 244.5C55 257.479 65.5213 268 78.5 268ZM78.5 283C99.763 283 117 265.763 117 244.5C117 228.178 106.844 214.229 92.5058 208.627C92.6172 200.289 94.3179 193.672 96.5946 189.537C98.9514 185.257 102.432 181.718 107.309 178.517C115.793 172.948 126.326 169.515 139.434 165.243H139.436H139.436C142.999 164.081 146.752 162.858 150.705 161.513C167.756 155.714 187.672 147.747 202.255 131.14C208.89 124.505 218.517 113.674 219.846 85.2385C234.004 79.55 244 65.6924 244 49.5C244 28.237 226.763 11 205.5 11C184.237 11 167 28.237 167 49.5C167 65.0935 176.27 78.5218 189.601 84.5741C189.24 102.462 183.854 108.194 179.284 113.059C178.67 113.712 178.07 114.35 177.5 115C169.853 123.708 154.601 128.275 141.632 132.159H141.631C138.962 132.958 136.39 133.728 134 134.5C120.472 138.868 103.049 145.428 90.8473 153.436C82.8337 158.696 75.5252 165.606 70.3156 175.066C65.1086 184.522 62.5038 196.607 62.5 209.472C49.2238 215.546 40 228.946 40 244.5C40 265.763 57.237 283 78.5 283ZM102 49.5C102 62.4787 91.4787 73 78.5 73C65.5213 73 55 62.4787 55 49.5C55 36.5213 65.5213 26 78.5 26C91.4787 26 102 36.5213 102 49.5ZM63 84.7526V177.149C63.97 174.766 65.0717 172.452 66.3079 170.207C72.2787 159.364 80.6085 151.557 89.4575 145.748C91.0898 144.677 92.6024 143.714 94 142.848V84.7526C107.544 78.7889 117 65.2487 117 49.5C117 28.237 99.763 11 78.5 11C57.237 11 40 28.237 40 49.5C40 65.2487 49.456 78.7889 63 84.7526ZM229 49.5C229 62.4787 218.479 73 205.5 73C192.521 73 182 62.4787 182 49.5C182 36.5213 192.521 26 205.5 26C218.479 26 229 36.5213 229 49.5Z" fill="#EDECEC"/>
</svg>
